Coordinates
version=1
nRows=11
nColumns=46
inDegrees=yes

Units are S.I. units (second, meters, Newtons, ...)
Angles are in degrees.

endheader
time	pelvis_tilt	pelvis_list	pelvis_rotation	pelvis_tx	pelvis_ty	pelvis_tz	bb_angle	bb_tx	bb_ty	bb_tz	hip_flexion_r	hip_adduction_r	hip_rotation_r	knee_angle_r	knee_angle_r_beta	ankle_angle_r	subtalar_angle_r	mtp_angle_r	crank_angle_r	hip_flexion_l	hip_adduction_l	hip_rotation_l	knee_angle_l	knee_angle_l_beta	ankle_angle_l	subtalar_angle_l	mtp_angle_l	crank_angle_l	lumbar_extension	lumbar_bending	lumbar_rotation	arm_flex_r	arm_add_r	arm_rot_r	elbow_flex_r	pro_sup_r	wrist_flex_r	wrist_dev_r	arm_flex_l	arm_add_l	arm_rot_l	elbow_flex_l	pro_sup_l	wrist_flex_l	wrist_dev_l
      7.50000000	    -23.09413635	     -0.99329627	     -5.07886183	      0.17518762	      1.03965019	     -0.23512672	      0.00000000	      0.50000000	      0.00000000	      0.25000000	     68.43938224	     -1.31562866	      1.44765607	     57.33759743	      1.00072986	      6.59285047	     -3.08395701	      0.00000000	      0.00000000	     64.44384194	     -9.47897851	     -1.95718975	     96.23962390	      1.67969831	      0.59377483	    -15.91937474	      0.00000000	      0.00000000	    -61.00246838	      0.40417435	      0.41542458	     77.70470816	    -19.08181982	     29.70629774	     90.92126200	     52.12273102	      0.00000000	      0.00000000	     66.53682482	    -23.84208922	     13.74739345	     96.34512133	     51.19035153	      0.00000000	      0.00000000
      7.50500000	    -22.99890607	     -0.47122566	     -4.70970930	      0.17550345	      1.04028499	     -0.23479413	      0.00000000	      0.50000000	      0.00000000	      0.25000000	     66.53200247	     -1.96283151	      1.48835290	     54.47830241	      0.95082575	      5.45278970	     -2.35106945	      0.00000000	      0.00000000	     65.60915985	     -9.12849246	     -2.06135645	     98.17120111	      1.71341069	      0.86723388	    -15.62384849	      0.00000000	      0.00000000	    -60.92889221	      0.17261392	     -0.15087912	     77.24368010	    -19.17749085	     29.49901181	     90.83533870	     52.07415930	      0.00000000	      0.00000000	     66.70740908	    -24.03822111	     13.98008440	     96.11828245	     51.16391007	      0.00000000	      0.00000000
      7.51000000	    -22.74378410	     -0.27083834	     -4.36366799	      0.17568678	      1.04098995	     -0.23423557	      0.00000000	      0.50000000	      0.00000000	      0.25000000	     64.29005723	     -2.33768566	      1.27887650	     51.43747137	      0.89775323	      4.38316086	     -2.35764061	      0.00000000	      0.00000000	     66.70406091	     -8.95920671	     -1.77090569	    100.18738696	      1.74859977	      1.46966363	    -14.81679194	      0.00000000	      0.00000000	    -61.04583331	      0.03240374	     -0.52014128	     76.97505530	    -19.02038409	     28.91847225	     90.64907331	     51.97727295	      0.00000000	      0.00000000	     67.32165742	    -24.66198862	     14.93264756	     95.57468038	     51.17129671	      0.00000000	      0.00000000
      7.51500000	    -22.75516137	      0.31169248	     -3.93657762	      0.17607970	      1.04132470	     -0.23377988	      0.00000000	      0.50000000	      0.00000000	      0.25000000	     62.46484321	     -3.06349918	      1.29403471	     48.63603604	      0.84885896	      3.54678041	     -1.74084854	      0.00000000	      0.00000000	     68.03174806	     -8.50453175	     -1.84173871	    101.99714177	      1.78018595	      1.79738049	    -14.48989762	      0.00000000	      0.00000000	    -60.79715308	     -0.29103862	     -1.26082738	     76.25400735	    -19.08838506	     28.61953237	     90.58829876	     51.87132934	      0.00000000	      0.00000000	     67.32687536	    -24.72647722	     15.08177964	     95.39570448	     51.09861687	      0.00000000	      0.00000000
      7.52000000	    -22.30716674	      0.34883905	     -3.56674901	      0.17643851	      1.04250045	     -0.23298343	      0.00000000	      0.50000000	      0.00000000	      0.25000000	     59.91547627	     -3.35262769	      0.90215099	     45.56954149	      0.79533854	      2.18444977	     -1.57919872	      0.00000000	      0.00000000	     69.01663512	     -8.51573957	     -1.46260348	    103.87606504	      1.81297935	      2.23883976	    -13.66588441	      0.00000000	      0.00000000	    -61.20499744	     -0.32902819	     -1.49375769	     76.11013037	    -18.88187373	     28.26071865	     90.36812094	     51.78895065	      0.00000000	      0.00000000	     68.11021991	    -25.34543843	     15.96314887	     94.98871454	     51.11027492	      0.00000000	      0.00000000
      7.52500000	    -22.11399314	      0.68458337	     -3.07497352	      0.17678347	      1.04302765	     -0.23232259	      0.00000000	      0.50000000	      0.00000000	      0.25000000	     57.74196694	     -3.89536337	      0.72760730	     42.69574966	      0.74518141	      1.03743803	     -1.48599437	      0.00000000	      0.00000000	     70.27005306	     -8.19277062	     -1.23608121	    105.66639712	      1.84422654	      2.79705880	    -12.83750037	      0.00000000	      0.00000000	    -61.22148943	     -0.51027210	     -2.03211611	     75.68110394	    -18.80606457	     27.92103466	     90.02098331	     51.70098891	      0.00000000	      0.00000000	     68.79368647	    -25.92467222	     17.21872373	     94.47219292	     51.14976097	      0.00000000	      0.00000000
      7.53000000	    -22.15586488	      1.31016363	     -2.53535338	      0.17706835	      1.04300690	     -0.23169065	      0.00000000	      0.50000000	      0.00000000	      0.25000000	     55.95937258	     -4.70785038	      0.68104243	     40.09622816	      0.69981120	      0.32874686	     -0.88875044	      0.00000000	      0.00000000	     71.76756376	     -7.66250187	     -1.34665279	    107.29897559	      1.87272041	      2.99575212	    -12.58149569	      0.00000000	      0.00000000	    -60.97459209	     -0.84951799	     -2.94084042	     75.17699497	    -18.93549811	     27.82274108	     89.90100862	     51.65989330	      0.00000000	      0.00000000	     68.98428858	    -25.94917496	     17.49527390	     94.33362036	     51.13696142	      0.00000000	      0.00000000
      7.53500000	    -21.91285217	      1.42263623	     -2.02284062	      0.17749211	      1.04384131	     -0.23128607	      0.00000000	      0.50000000	      0.00000000	      0.25000000	     53.67818325	     -5.16024915	      0.14128114	     37.23576240	      0.64988665	     -1.26709917	     -0.74242295	      0.00000000	      0.00000000	     73.03111521	     -7.39783000	     -0.96098848	    108.89877978	      1.90064226	      3.45693158	    -11.77165964	      0.00000000	      0.00000000	    -61.12321787	     -0.81403956	     -3.28927082	     74.80968839	    -18.64138003	     27.42031439	     89.47889794	     51.57407943	      0.00000000	      0.00000000	     69.93051358	    -26.72208549	     19.09658683	     93.72342900	     51.20793768	      0.00000000	      0.00000000
      7.54000000	    -22.01964253	      1.99177313	     -1.44671739	      0.17765535	      1.04367613	     -0.23075106	      0.00000000	      0.50000000	      0.00000000	      0.25000000	     52.13170323	     -5.97810916	     -0.01297654	     35.09023774	      0.61244018	     -2.14637888	     -0.12579012	      0.00000000	      0.00000000	     74.65791348	     -6.83396257	     -1.02912565	    110.38287838	      1.92654467	      3.70857652	    -11.62788500	      0.00000000	      0.00000000	    -60.85859836	     -1.12273737	     -4.18778936	     74.41524808	    -18.76798106	     27.37165332	     89.36086723	     51.55599463	      0.00000000	      0.00000000	     70.19137258	    -26.71797721	     19.38615381	     93.62160196	     51.21664832	      0.00000000	      0.00000000
      7.54500000	    -22.03220411	      2.39192788	     -0.69504851	      0.17777521	      1.04390983	     -0.23046801	      0.00000000	      0.50000000	      0.00000000	      0.25000000	     50.43599085	     -6.80789660	     -0.57699556	     32.86666526	      0.57363152	     -3.51940326	      0.34909145	      0.00000000	      0.00000000	     76.23970620	     -6.17616889	     -0.92449546	    111.70115435	      1.94955292	      3.82051116	    -11.14296258	      0.00000000	      0.00000000	    -60.76081651	     -1.07806093	     -4.89593122	     73.90940228	    -18.72730420	     27.26964786	     89.17788247	     51.52575652	      0.00000000	      0.00000000	     70.62718355	    -26.86266540	     19.90183683	     93.43048059	     51.23367497	      0.00000000	      0.00000000
      7.55000000	    -22.05843150	      2.72781152	     -0.19615573	      0.17803481	      1.04367901	     -0.23040905	      0.00000000	      0.50000000	      0.00000000	      0.25000000	     48.98153220	     -7.44212138	     -1.12123335	     31.10175545	      0.54282804	     -4.66474287	      0.69544028	      0.00000000	      0.00000000	     77.83995650	     -5.74487130	     -0.86821912	    113.07726735	      1.97357062	      4.26982769	    -10.93723917	      0.00000000	      0.00000000	    -60.56438213	     -1.18685882	     -5.56344522	     73.57297809	    -18.69110137	     27.09683868	     89.02527321	     51.48887185	      0.00000000	      0.00000000	     70.92663082	    -26.96704293	     20.43899571	     93.25630539	     51.25533454	      0.00000000	      0.00000000
